<?xml version="1.0" encoding="UTF-8" standalone="no"?>
<svg width="369px" height="369px" viewBox="0 0 369 369" version="1.1" xmlns="http://www.w3.org/2000/svg" xmlns:xlink="http://www.w3.org/1999/xlink" xmlns:sketch="http://www.bohemiancoding.com/sketch/ns">
    <title>note</title>
    <description>Created with Sketch (http://www.bohemiancoding.com/sketch)</description>
    <defs></defs>
    <g id="Page-1" stroke="none" stroke-width="1" fill="none" fill-rule="evenodd" sketch:type="MSPage">
        <g id="Sleevenote-LOGO-white-on-black" sketch:type="MSLayerGroup" transform="translate(-72.000000, -72.000000)">
            <g id="background"></g>
            <g id="note" transform="translate(87.000000, 78.000000)" fill="#FFFFFF" sketch:type="MSShapeGroup">
                <path d="M337.223,0.347 L95.436,20.377 L95.436,248.516 L95.436,290.704 C85.686,287.69 74.341,286.805 61.58,287.869 C44.916,289.11 30.381,293.542 18.682,300.985 C6.805,308.786 0.779,317.294 0.779,326.512 C0.779,335.73 6.805,343.352 18.682,348.847 C30.381,354.519 44.74,356.646 61.58,355.229 C78.42,353.988 92.777,349.556 104.476,341.756 C109.794,338.566 114.048,333.778 117.24,327.929 C120.253,322.256 121.848,316.585 122.203,310.381 L122.203,245.857 L337.224,228.485 L337.224,0.347 L337.224,0.347 L337.223,0.347 L337.223,0.347 Z M337.223,0.347" id="Shape"></path>
            </g>
        </g>
    </g>
</svg>