<?xml version="1.0" encoding="utf-8"?>
<!-- Generator: Adobe Illustrator 15.1.0, SVG Export Plug-In . SVG Version: 6.00 Build 0)  -->
<!DOCTYPE svg PUBLIC "-//W3C//DTD SVG 1.1//EN" "http://www.w3.org/Graphics/SVG/1.1/DTD/svg11.dtd">
<svg version="1.1" xmlns="http://www.w3.org/2000/svg" xmlns:xlink="http://www.w3.org/1999/xlink" x="0px" y="0px" width="512px"
	 height="512px" viewBox="0 0 512 512" enable-background="new 0 0 512 512" xml:space="preserve">
<g id="background">
	<rect width="512" height="512"/>
</g>
<g id="note">
	<path fill="#FFFFFF" d="M424.223,78.347l-241.787,20.03v228.139v42.188c-9.75-3.014-21.095-3.899-33.856-2.835
		c-16.664,1.241-31.199,5.673-42.898,13.116c-11.877,7.801-17.903,16.309-17.903,25.527c0,9.218,6.026,16.84,17.903,22.335
		c11.699,5.672,26.058,7.799,42.898,6.382c16.84-1.241,31.197-5.673,42.896-13.473c5.318-3.19,9.572-7.978,12.764-13.827
		c3.013-5.673,4.608-11.344,4.963-17.548v-64.524l215.021-17.372V78.347z"/>
</g>
</svg>
